<?xml version="1.0" encoding="utf-8"?>
<!-- Generator: Adobe Illustrator 24.3.0, SVG Export Plug-In . SVG Version: 6.00 Build 0)  -->
<svg version="1.1" id="Layer_1" xmlns="http://www.w3.org/2000/svg" xmlns:xlink="http://www.w3.org/1999/xlink" x="0px" y="0px"
	 viewBox="0 0 400 300" style="enable-background:new 0 0 400 300;" xml:space="preserve">
<style type="text/css">
	.st0{opacity:0.3;fill:#E6E6E6;enable-background:new    ;}
	.st1{fill:#F4A28C;}
	.st2{opacity:0.1;enable-background:new    ;}
	.st3{fill:#E6E6E6;}
	.st4{fill:#FFFFFF;}
	.st5{fill:#24285B;}
	.st6{fill:#0BB783;}
	.st7{fill:#A8A8A8;}
	.st8{fill:#FFD200;}
	.st9{enable-background:new    ;}
	.st10{fill:none;stroke:#FFFFFF;stroke-width:2;stroke-linecap:round;stroke-linejoin:round;}
	.st11{fill:none;stroke:#A8A8A8;stroke-width:2;stroke-linecap:round;stroke-linejoin:round;stroke-dasharray:1,5;}
</style>
<circle class="st0" cx="119.4" cy="166.9" r="73.7"/>
<circle class="st0" cx="279.6" cy="166.9" r="73.7"/>
<path class="st1" d="M327.3,147.3c0,0,3.5-44.2-19.2-47.9s-25.5,60.6-6.1,61.6S327.3,147.3,327.3,147.3z"/>
<path class="st2" d="M302,160.9c19.5,1,25.3-13.7,25.3-13.7s3.5-44.2-19.2-47.9"/>
<path class="st1" d="M71.9,158c0,0,8.3-39.1,29.3-39.1s32.1,61.5-18.8,68.2L71.9,158z"/>
<path class="st2" d="M71.9,158c0,0,8.3-39.1,29.3-39.1s32.1,61.5-18.8,68.2L71.9,158z"/>
<rect x="90.2" y="47.7" class="st3" width="80.1" height="142.4"/>
<rect x="96.7" y="59.2" class="st4" width="67.1" height="106.5"/>
<rect x="110.2" y="134.7" class="st5" width="38.8" height="16.1"/>
<path class="st2" d="M114.4,130.7c0,0,8.9,5.4,5.5,13.3s-13.8,12.8-14,23.2s0,22.8,0,22.8H90.2v-24.3L114.4,130.7z"/>
<path class="st1" d="M88.3,143.4c0,0,16.2-16.5,23.1-15.1c5.8,1.2,5.8,12.7-6.8,22.2c-5.2,3.9-8.4,9.8-8.8,16.2
	c-0.4,5.3-2.1,11.7-7.5,16.5c-11.4,10.1-19.8,1.3-18.7-12.3S71.4,153.4,88.3,143.4z"/>
<polygon class="st6" points="94.6,181.1 88.5,265.2 38.7,255.6 63.7,171.8 "/>
<polygon class="st2" points="69,261.5 79.8,176.7 94.6,181.1 88.5,265.2 "/>
<circle class="st7" cx="112.7" cy="53.3" r="2.4"/>
<path class="st7" d="M120.9,52.4h23.7c0.6,0,1,0.5,1,1v0.1c0,0.6-0.5,1-1,1h-23.7c-0.6,0-1-0.5-1-1v-0.1
	C119.9,52.9,120.3,52.4,120.9,52.4z"/>
<circle class="st8" cx="130.2" cy="100" r="21.9"/>
<circle class="st7" cx="128.3" cy="177.4" r="7.8"/>
<g class="st9">
	<path class="st4" d="M137.2,89.6l-1.4,3.1h-3.3c0.2,0.2,0.3,0.4,0.5,0.7c0.2,0.3,0.3,0.6,0.3,0.9h3.9l-1.4,3.1h-2.5
		c-0.1,0.7-0.3,1.3-0.7,1.9s-0.8,1-1.3,1.4c-0.5,0.4-1.1,0.7-1.8,1s-1.4,0.4-2.1,0.5l7.7,8.2h-5l-7.1-7.9v-3.1h2.1
		c0.3,0,0.6,0,1-0.1c0.4,0,0.8-0.1,1.2-0.2s0.8-0.3,1.1-0.6c0.3-0.2,0.6-0.6,0.7-1h-6.8l1.4-3.1h5.4c-0.1-0.4-0.3-0.7-0.6-0.9
		c-0.3-0.2-0.7-0.4-1.1-0.5c-0.4-0.1-0.9-0.2-1.4-0.2s-1.1,0-1.6,0h-2.1l1.4-3.1H137.2z"/>
</g>
<rect x="228" y="47.7" class="st3" width="80.1" height="142.4"/>
<rect x="234.5" y="59.2" class="st4" width="67.1" height="106.5"/>
<circle class="st7" cx="250.5" cy="53.3" r="2.4"/>
<path class="st7" d="M258.7,52.4h23.7c0.6,0,1,0.5,1,1v0.1c0,0.6-0.5,1-1,1h-23.7c-0.6,0-1-0.5-1-1v-0.1
	C257.7,52.9,258.2,52.4,258.7,52.4z"/>
<path class="st2" d="M302.4,117.9c0,0-10.2,2.3-6.8,12.3s-0.4,23.6-2.2,26.6c-8.1,12.9-4.4,33.3-4.4,33.3h19
	C308.1,190,313.2,124.9,302.4,117.9z"/>
<circle class="st8" cx="268" cy="111.2" r="21.9"/>
<circle class="st7" cx="266.1" cy="177.4" r="7.8"/>
<g class="st9">
	<path class="st4" d="M276,100.9l-1.4,3.1h-3.3c0.2,0.2,0.3,0.4,0.5,0.7c0.2,0.3,0.3,0.6,0.3,0.9h3.9l-1.4,3.1h-2.5
		c-0.1,0.7-0.3,1.3-0.7,1.9s-0.8,1-1.3,1.4c-0.5,0.4-1.1,0.7-1.8,1s-1.4,0.4-2.1,0.5l7.7,8.2h-5l-7.1-7.9v-3.1h2.1
		c0.3,0,0.6,0,1-0.1c0.4,0,0.8-0.1,1.2-0.2c0.4-0.1,0.8-0.3,1.1-0.6c0.3-0.2,0.6-0.6,0.7-1H261l1.4-3.1h5.4
		c-0.1-0.4-0.3-0.7-0.6-0.9c-0.3-0.2-0.7-0.4-1.1-0.5c-0.4-0.1-0.9-0.2-1.4-0.2c-0.5,0-1.1,0-1.6,0H261l1.4-3.1H276z"/>
</g>
<path class="st1" d="M322.1,137.5c0,0-6.1-22.3-13-24.4c-5.6-1.7-11.2,8.3-4.8,22.7c2.6,5.9,2.6,12.6-0.1,18.5
	c-2.3,4.8-3.8,11.3-1.4,18.1c5.1,14.3,19,12.7,24.6,0.3S332.1,154.3,322.1,137.5z"/>
<polygon class="st6" points="299.7,173.9 305.7,257.9 355.5,248.3 330.5,164.5 "/>
<polygon class="st2" points="325.2,254.2 314.4,169.4 299.7,173.9 305.7,257.9 "/>
<circle class="st5" cx="286.2" cy="90.4" r="11.6"/>
<polyline class="st10" points="282.2,90.1 285.2,94.6 289.9,86.4 "/>
<path class="st11" d="M176.8,105.1c0,0,20.4-14.7,46.8,0.4"/>
<circle class="st5" cx="199.1" cy="50.1" r="20.6"/>
<polygon class="st5" points="196.2,67.9 199.7,79.9 203.1,67.2 "/>
<g class="st9">
	<path class="st4" d="M194.2,56.5c-0.8,0-1.6-0.2-2.3-0.5s-1.3-0.8-1.7-1.4c-0.5-0.6-0.8-1.3-1.1-2.2c-0.3-0.8-0.4-1.7-0.4-2.7
		c0-1,0.1-1.9,0.4-2.7c0.3-0.8,0.6-1.6,1.1-2.2c0.5-0.6,1.1-1.1,1.7-1.4s1.4-0.5,2.3-0.5s1.6,0.2,2.3,0.5c0.7,0.4,1.3,0.8,1.7,1.4
		c0.5,0.6,0.8,1.3,1.1,2.2c0.3,0.8,0.4,1.7,0.4,2.7c0,1-0.1,1.9-0.4,2.7c-0.3,0.8-0.6,1.6-1.1,2.2c-0.5,0.6-1.1,1.1-1.7,1.4
		C195.8,56.3,195.1,56.5,194.2,56.5z M194.2,54.1c0.5,0,0.9-0.1,1.2-0.3c0.4-0.2,0.7-0.5,0.9-0.9c0.3-0.4,0.5-0.9,0.6-1.4
		c0.1-0.5,0.2-1.1,0.2-1.8c0-0.7-0.1-1.2-0.2-1.8c-0.1-0.5-0.3-1-0.6-1.4c-0.3-0.4-0.6-0.7-0.9-0.9s-0.8-0.3-1.2-0.3
		c-0.5,0-0.9,0.1-1.3,0.3s-0.7,0.5-0.9,0.9c-0.3,0.4-0.4,0.9-0.6,1.4c-0.1,0.5-0.2,1.1-0.2,1.8c0,0.6,0.1,1.2,0.2,1.8
		c0.1,0.5,0.3,1,0.6,1.4c0.3,0.4,0.6,0.7,0.9,0.9C193.3,54,193.7,54.1,194.2,54.1z"/>
	<path class="st4" d="M200.9,50.3c0-0.3,0-0.5,0.1-0.7c0.1-0.2,0.2-0.4,0.4-0.6s0.4-0.3,0.6-0.4c0.2-0.1,0.5-0.2,0.8-0.2
		s0.5,0.1,0.8,0.2c0.2,0.1,0.4,0.2,0.6,0.4s0.3,0.4,0.4,0.6c0.1,0.2,0.2,0.5,0.2,0.7c0,0.3,0,0.5-0.2,0.7c-0.1,0.2-0.2,0.4-0.4,0.6
		c-0.2,0.2-0.4,0.3-0.6,0.4c-0.2,0.1-0.5,0.1-0.8,0.1s-0.5,0-0.8-0.1c-0.2-0.1-0.4-0.2-0.6-0.4c-0.2-0.2-0.3-0.4-0.4-0.6
		C200.9,50.8,200.9,50.6,200.9,50.3z M202.1,50.3c0,0.2,0.1,0.4,0.2,0.6c0.1,0.1,0.3,0.2,0.5,0.2s0.4-0.1,0.5-0.2
		c0.1-0.1,0.2-0.3,0.2-0.6c0-0.2-0.1-0.4-0.2-0.6c-0.1-0.1-0.3-0.2-0.5-0.2s-0.4,0.1-0.5,0.2C202.2,49.9,202.1,50.1,202.1,50.3z
		 M202.3,55.8l4.9-7.4l0.9,0.6l-4.9,7.4L202.3,55.8z M205.6,54.5c0-0.3,0.1-0.5,0.2-0.7s0.2-0.4,0.4-0.6s0.4-0.3,0.6-0.4
		c0.2-0.1,0.5-0.2,0.8-0.2c0.3,0,0.5,0,0.8,0.2c0.2,0.1,0.4,0.2,0.6,0.4s0.3,0.4,0.4,0.6c0.1,0.2,0.1,0.5,0.1,0.7
		c0,0.3,0,0.5-0.1,0.7c-0.1,0.2-0.2,0.4-0.4,0.6c-0.2,0.2-0.4,0.3-0.6,0.4c-0.2,0.1-0.5,0.2-0.8,0.2c-0.3,0-0.5,0-0.8-0.2
		c-0.2-0.1-0.4-0.2-0.6-0.4c-0.2-0.2-0.3-0.4-0.4-0.6S205.6,54.7,205.6,54.5z M206.8,54.5c0,0.2,0.1,0.4,0.2,0.6
		c0.1,0.1,0.3,0.2,0.5,0.2s0.4-0.1,0.5-0.2c0.1-0.1,0.2-0.3,0.2-0.6c0-0.2-0.1-0.4-0.2-0.6c-0.1-0.1-0.3-0.2-0.5-0.2
		s-0.4,0.1-0.5,0.2C206.9,54,206.8,54.2,206.8,54.5z"/>
</g>
</svg>
